<?xml version="1.0" encoding="UTF-8"?>
<svg width="60px" height="60px" viewBox="0 0 60 60" version="1.1" xmlns="http://www.w3.org/2000/svg" xmlns:xlink="http://www.w3.org/1999/xlink">
    <title>消息Chat/默认</title>
    <g id="消息Chat/默认" stroke="none" stroke-width="1" fill="none" fill-rule="evenodd">
        <rect id="矩形" x="0" y="0" width="60" height="60"></rect>
        <path d="M30,5.625 C16.5380592,5.625 5.625,16.5380592 5.625,30 C5.625,32.7851279 6.46902561,36.1936985 8.1223833,40.2871043 C8.40161707,40.9784352 8.50469866,41.7283181 8.42236345,42.469357 L7.62892703,49.6102848 C7.45045227,51.2165577 8.82004569,52.567518 10.4237232,52.3670583 L17.394269,51.4957401 C17.6338094,51.4657976 17.8770415,51.4941113 18.1033056,51.5782772 C23.0889807,53.4328879 27.0236054,54.375 30,54.375 C43.4619408,54.375 54.375,43.4619408 54.375,30 C54.375,16.5380592 43.4619408,5.625 30,5.625 Z M30,10.625 C40.700517,10.625 49.375,19.299483 49.375,30 C49.375,40.700517 40.700517,49.375 30,49.375 C28.7076898,49.375 27.0385983,49.1079643 25.0100472,48.5683684 L24.2325247,48.3532329 C23.5706043,48.1632885 22.8737919,47.9466594 22.1426161,47.703177 L21.2487445,47.3980979 L20.3220871,47.0671749 C20.1649233,47.0098638 20.0064019,46.9514732 19.8465271,46.8920017 L19.5502743,46.7898595 C18.6554356,46.5052773 17.7082924,46.4175761 16.7740954,46.5343507 L12.948,47.012 L13.391783,43.0215065 C13.5656013,41.4570951 13.3479858,39.8740172 12.7584936,38.4145442 C11.3246,34.8644906 10.625,32.0391783 10.625,30 C10.625,19.299483 19.299483,10.625 30,10.625 Z" id="路径" fill="#32394D" fill-rule="nonzero"></path>
        <path d="M21.875,22.5 C23.2004834,22.5 24.2850387,23.5315359 24.3696823,24.8356243 L24.375,25 L24.375,31.25 C24.375,32.6307119 23.2557119,33.75 21.875,33.75 C20.5495166,33.75 19.4649613,32.7184641 19.3803177,31.4143757 L19.375,31.25 L19.375,25 C19.375,23.6192881 20.4942881,22.5 21.875,22.5 Z M38.125,22.5 C39.4504834,22.5 40.5350387,23.5315359 40.6196823,24.8356243 L40.625,25 L40.625,31.25 C40.625,32.6307119 39.5057119,33.75 38.125,33.75 C36.7995166,33.75 35.7149613,32.7184641 35.6303177,31.4143757 L35.625,31.25 L35.625,25 C35.625,23.6192881 36.7442881,22.5 38.125,22.5 Z" id="形状结合" fill="#4273FC" fill-rule="nonzero"></path>
    </g>
</svg>
