<?xml version="1.0" encoding="UTF-8"?>
<svg width="60px" height="60px" viewBox="0 0 60 60" version="1.1" xmlns="http://www.w3.org/2000/svg" xmlns:xlink="http://www.w3.org/1999/xlink">
    <title>消息Chat/激活</title>
    <g id="消息Chat/激活" stroke="none" stroke-width="1" fill="none" fill-rule="evenodd">
        <rect id="矩形" x="0" y="0" width="60" height="60"></rect>
        <path d="M30,5.625 C43.4619408,5.625 54.375,16.5380592 54.375,30 C54.375,43.4619408 43.4619408,54.375 30,54.375 C27.0236054,54.375 23.0889807,53.4328879 18.1033056,51.5782772 C17.8770415,51.4941113 17.6338094,51.4657976 17.394269,51.4957401 L17.394269,51.4957401 L10.4237232,52.3670583 C8.82004569,52.567518 7.45045227,51.2165577 7.62892703,49.6102848 L7.62892703,49.6102848 L8.42236345,42.469357 C8.50469866,41.7283181 8.40161707,40.9784352 8.1223833,40.2871043 C6.46902561,36.1936985 5.625,32.7851279 5.625,30 C5.625,16.5380592 16.5380592,5.625 30,5.625 Z M21.875,22.5 C20.4942881,22.5 19.375,23.6192881 19.375,25 L19.375,25 L19.375,31.25 L19.3803177,31.4143757 C19.4649613,32.7184641 20.5495166,33.75 21.875,33.75 C23.2557119,33.75 24.375,32.6307119 24.375,31.25 L24.375,31.25 L24.375,25 L24.3696823,24.8356243 C24.2850387,23.5315359 23.2004834,22.5 21.875,22.5 Z M38.125,22.5 C36.7442881,22.5 35.625,23.6192881 35.625,25 L35.625,25 L35.625,31.25 L35.6303177,31.4143757 C35.7149613,32.7184641 36.7995166,33.75 38.125,33.75 C39.5057119,33.75 40.625,32.6307119 40.625,31.25 L40.625,31.25 L40.625,25 L40.6196823,24.8356243 C40.5350387,23.5315359 39.4504834,22.5 38.125,22.5 Z" id="形状结合" fill="#4273FC" fill-rule="nonzero"></path>
    </g>
</svg>