<?xml version="1.0" encoding="UTF-8"?>
<svg width="60px" height="60px" viewBox="0 0 60 60" version="1.1" xmlns="http://www.w3.org/2000/svg" xmlns:xlink="http://www.w3.org/1999/xlink">
    <title>探索Explore/激活</title>
    <g id="探索Explore/激活" stroke="none" stroke-width="1" fill="none" fill-rule="evenodd">
        <rect id="矩形" x="0" y="0" width="60" height="60"></rect>
        <path d="M31.7374854,5.36440138 L50.7625146,16.1980986 C51.7221013,16.7445299 52.5,18.0844821 52.5,19.1875773 L52.5,40.8124227 C52.5,41.9170349 51.7254991,43.2535353 50.7625146,43.8019014 L31.7374854,54.6355986 C30.7778987,55.1820299 29.2254991,55.1839647 28.2625146,54.6355986 L9.23748535,43.8019014 C8.27789869,43.2554701 7.5,41.9155179 7.5,40.8124227 L7.5,19.1875773 C7.5,18.0829651 8.27450093,16.7464647 9.23748535,16.1980986 L28.2625146,5.36440138 C29.2221013,4.81797009 30.7745009,4.81603525 31.7374854,5.36440138 Z M40.2542779,23.6899712 C39.530769,22.5140035 37.9909389,22.1472131 36.8149712,22.8707221 L36.8149712,22.8707221 L29.995,27.066 L23.1862431,22.8714697 L23.0374858,22.7866045 C21.8837681,22.1791884 20.4404751,22.5621835 19.7464697,23.6887569 C19.0222901,24.8643117 19.388202,26.4043508 20.5637569,27.1285303 L20.5637569,27.1285303 L27.49965,31.4006486 L27.5,38.75 L27.5053177,38.9143757 C27.5899613,40.2184641 28.6745166,41.25 30,41.25 C31.3807119,41.25 32.5,40.1307119 32.5,38.75 L32.5,38.75 L32.49965,31.3956486 L39.4350288,27.1292779 L39.57779,27.034673 C40.6396695,26.2780815 40.9476407,24.8169403 40.2542779,23.6899712 Z" id="形状结合" fill="#4273FC" fill-rule="nonzero"></path>
    </g>
</svg>