<?xml version="1.0" encoding="UTF-8"?>
<svg width="60px" height="60px" viewBox="0 0 60 60" version="1.1" xmlns="http://www.w3.org/2000/svg" xmlns:xlink="http://www.w3.org/1999/xlink">
    <title>探索Explore/默认</title>
    <g id="探索Explore/默认" stroke="none" stroke-width="1" fill="none" fill-rule="evenodd">
        <rect id="矩形" x="0" y="0" width="60" height="60"></rect>
        <path d="M31.7374854,5.36440138 L50.7625146,16.1980986 C51.7221013,16.7445299 52.5,18.0844821 52.5,19.1875773 L52.5,40.8124227 C52.5,41.9170349 51.7254991,43.2535353 50.7625146,43.8019014 L31.7374854,54.6355986 C30.7778987,55.1820299 29.2254991,55.1839647 28.2625146,54.6355986 L9.23748535,43.8019014 C8.27789869,43.2554701 7.5,41.9155179 7.5,40.8124227 L7.5,19.1875773 C7.5,18.0829651 8.27450093,16.7464647 9.23748535,16.1980986 L28.2625146,5.36440138 C29.2221013,4.81797009 30.7745009,4.81603525 31.7374854,5.36440138 Z M30,10.128 L12.5,20.094 L12.5,39.905 L30,49.871 L47.5,39.905 L47.5,20.094 L30,10.128 Z" id="Combined-Shape" fill="#32394D" fill-rule="nonzero"></path>
        <g id="编组-3" transform="translate(19.374650, 22.499649)" fill="#4273FC" fill-rule="nonzero">
            <path d="M20.879628,1.19032256 C21.5729907,2.31729164 21.2650195,3.7784329 20.20314,4.53502439 L20.0603788,4.62962931 L13.125,8.896 L13.12535,16.2503514 C13.12535,17.6310632 12.0060619,18.7503514 10.62535,18.7503514 C9.29986662,18.7503514 8.21531135,17.7188154 8.1306677,16.4147271 L8.12535002,16.2503514 L8.125,8.901 L1.18910688,4.62888172 C0.0135520297,3.90470213 -0.352359915,2.36466308 0.371819675,1.18910823 C1.06582511,0.0625348375 2.50911815,-0.320460267 3.66283583,0.286955855 L3.81159316,0.37182103 L10.62035,4.56635137 L17.4403212,0.371073443 C18.6162889,-0.352435492 20.156119,0.0143548328 20.879628,1.19032256 Z" id="形状结合"></path>
        </g>
    </g>
</svg>