<?xml version="1.0" encoding="UTF-8"?>
<svg width="60px" height="60px" viewBox="0 0 60 60" version="1.1" xmlns="http://www.w3.org/2000/svg" xmlns:xlink="http://www.w3.org/1999/xlink">
    <title>知识库Knowledge/激活</title>
    <g id="知识库Knowledge/激活" stroke="none" stroke-width="1" fill="none" fill-rule="evenodd">
        <rect id="矩形" x="0" y="0" width="60" height="60"></rect>
        <path d="M12.5,52.5 C9.73857625,52.5 7.5,50.2614237 7.5,47.5 L7.5,12.5 C7.5,9.73857625 9.73857625,7.5 12.5,7.5 L40,7.5 C42.7614237,7.5 45,9.73857625 45,12.5 L45,26.25 L52.5,26.25 L52.5,45.5000001 C52.5,49.3659933 49.3659933,52.5 45.5,52.5 L12.5,52.5 Z M47.5,31.25 L45,31.25 L45,47.5 L45.5,47.5 C46.5543619,47.5 47.4181651,46.6841223 47.4945143,45.6492625 L47.5,45.5000001 L47.5,31.25 Z M32.5,32.5 L20,32.5 L19.8356243,32.5053177 C18.5315359,32.5899613 17.5,33.6745166 17.5,35 C17.5,36.3254834 18.5315359,37.4100387 19.8356243,37.4946823 L20,37.5 L32.5,37.5 L32.6643757,37.4946823 C33.9684641,37.4100387 35,36.3254834 35,35 C35,33.6192881 33.8807119,32.5 32.5,32.5 Z M32.5,22.5 L20,22.5 L19.8356243,22.5053177 C18.5315359,22.5899613 17.5,23.6745166 17.5,25 C17.5,26.3254834 18.5315359,27.4100387 19.8356243,27.4946823 L20,27.5 L32.5,27.5 L32.6643757,27.4946823 C33.9684641,27.4100387 35,26.3254834 35,25 C35,23.6192881 33.8807119,22.5 32.5,22.5 Z" id="形状结合" fill="#4273FC" fill-rule="nonzero"></path>
    </g>
</svg>