<?xml version="1.0" standalone="no"?><!DOCTYPE svg PUBLIC "-//W3C//DTD SVG 1.1//EN" "http://www.w3.org/Graphics/SVG/1.1/DTD/svg11.dtd"><svg t="1688175181343" class="icon" viewBox="0 0 1024 1024" version="1.1" xmlns="http://www.w3.org/2000/svg" p-id="6632" xmlns:xlink="http://www.w3.org/1999/xlink" width="200" height="200"><path d="M463.68 59.52a96 96 0 0 1 96 0l320 184.64a96 96 0 0 1 48.32 83.2v369.28a96 96 0 0 1-48 83.2l-320 184.64a96 96 0 0 1-96 0l-320-184.64a96 96 0 0 1-48-83.2v-369.28a96 96 0 0 1 47.68-83.2z m64.32 55.68a32 32 0 0 0-32 0l-320 184.64a32 32 0 0 0-16 27.52v369.28a32 32 0 0 0 16 27.84l320 184.32a32 32 0 0 0 32 0l320-184.64a32 32 0 0 0 16-27.52v-369.28a32 32 0 0 0-16-27.84zM396.8 397.632a160 160 0 0 1 156.48-40.192A160.064 160.064 0 0 1 512 672a166.72 166.72 0 0 1-41.28-5.44A160 160 0 0 1 396.8 397.632zM595.2 464a96 96 0 1 0-166.272 96A96 96 0 0 0 595.2 464z" fill="#32394d" p-id="6633"></path></svg>